<?xml version="1.0" standalone="no"?>
<!DOCTYPE svg PUBLIC "-//W3C//DTD SVG 20010904//EN"
 "http://www.w3.org/TR/2001/REC-SVG-20010904/DTD/svg10.dtd">
<svg version="1.0" xmlns="http://www.w3.org/2000/svg"
 width="807.000000pt" height="807.000000pt" viewBox="0 0 807.000000 807.000000"
 preserveAspectRatio="xMidYMid meet">

<g transform="translate(0.000000,807.000000) scale(0.100000,-0.100000)"
fill="#000000" stroke="none">
<path d="M3740 8049 c-817 -58 -1594 -364 -2240 -883 -169 -136 -449 -418
-596 -602 -524 -653 -814 -1401 -875 -2250 -20 -283 0 -653 51 -944 23 -128
98 -441 108 -452 4 -4 142 228 307 515 l300 521 7 174 c28 720 236 1319 649
1867 505 672 1268 1127 2084 1244 235 34 461 45 657 32 310 -20 556 -65 809
-147 354 -114 678 -283 971 -507 l88 -67 541 0 c338 0 539 4 537 10 -8 24
-219 257 -330 365 -296 289 -637 531 -1017 720 -623 310 -1350 454 -2051 404z"/>
<path d="M2517 6143 c-69 -118 -2354 -4076 -2377 -4115 l-32 -58 799 0 798 0
954 1655 c525 910 957 1655 961 1655 3 0 181 -304 395 -676 215 -372 395 -683
400 -690 8 -11 108 155 407 675 l398 689 -252 436 -252 436 -1097 0 c-604 0
-1100 -3 -1102 -7z"/>
<path d="M5822 5268 c-281 -486 -711 -1229 -956 -1653 -244 -423 -448 -771
-453 -772 -4 -1 -179 295 -388 659 -209 363 -388 674 -398 690 l-18 30 -396
-683 c-218 -376 -396 -689 -396 -695 0 -6 112 -206 249 -443 l249 -431 1099 2
1100 3 698 1210 c845 1465 1023 1775 1024 1786 1 5 3 10 4 12 8 9 5 56 -4 54
-6 -1 -10 4 -9 10 2 7 -3 12 -10 10 -7 -1 -12 7 -11 20 1 12 -4 21 -10 20 -6
-1 -10 8 -10 20 1 12 -4 21 -10 20 -6 -1 -10 8 -10 20 1 12 -4 21 -10 20 -6
-1 -10 8 -10 20 1 12 -4 21 -10 20 -6 -1 -10 8 -10 20 1 12 -4 21 -10 20 -6
-1 -10 8 -10 20 1 12 -4 21 -10 20 -6 -1 -10 8 -10 20 1 12 -4 21 -10 20 -6
-1 -10 4 -9 10 2 7 -3 12 -10 10 -7 -1 -12 7 -11 20 1 12 -4 21 -10 20 -6 -1
-10 8 -10 20 1 12 -4 21 -10 20 -6 -1 -10 8 -10 20 1 12 -4 21 -10 20 -6 -1
-10 8 -10 20 1 12 -4 21 -10 20 -6 -1 -10 8 -10 20 1 12 -4 21 -10 20 -6 -1
-10 8 -10 20 1 12 -4 21 -10 20 -6 -1 -10 8 -10 20 1 12 -4 21 -10 20 -6 -1
-10 4 -8 11 1 6 -4 11 -10 10 -8 -2 -13 6 -12 19 1 12 -4 21 -10 20 -6 -1 -10
8 -10 20 1 12 -4 21 -10 20 -6 -1 -10 8 -10 20 1 12 -4 21 -10 20 -6 -1 -10 8
-10 20 1 12 -4 21 -10 20 -6 -1 -10 8 -10 20 1 12 -4 21 -10 20 -6 -1 -10 8
-10 20 1 12 -4 21 -10 20 -6 -1 -10 4 -8 11 1 6 -4 11 -10 10 -8 -2 -13 6 -12
19 1 12 -4 21 -10 20 -6 -1 -10 8 -10 20 1 12 -4 21 -10 20 -6 -1 -10 8 -10
20 1 12 -4 21 -10 20 -6 -1 -10 8 -10 20 1 12 -4 21 -10 20 -6 -1 -10 8 -10
20 1 12 -3 21 -9 20 -6 -1 -11 5 -12 13 0 12 -26 15 -156 18 l-156 4 -511
-884z m813 864 c-3 -3 2 -14 12 -24 9 -10 12 -18 8 -18 -4 0 0 -9 10 -20 10
-11 14 -20 10 -20 -4 0 0 -9 10 -20 10 -11 14 -20 10 -20 -4 0 0 -9 10 -20 10
-11 14 -20 10 -20 -4 0 0 -9 10 -20 10 -11 14 -20 10 -20 -5 0 4 -13 20 -30
16 -16 25 -30 20 -30 -4 0 0 -9 10 -20 10 -11 14 -20 10 -20 -4 0 0 -9 10 -20
10 -11 14 -20 10 -20 -4 0 0 -9 10 -20 10 -11 14 -20 10 -20 -4 0 0 -9 10 -20
10 -11 14 -20 10 -20 -4 0 0 -9 10 -20 10 -11 14 -20 10 -20 -5 0 4 -13 20
-30 16 -16 25 -30 20 -30 -4 0 0 -9 10 -20 10 -11 14 -20 10 -20 -4 0 0 -9 10
-20 10 -11 14 -20 10 -20 -4 0 0 -9 10 -20 10 -11 14 -20 10 -20 -4 0 0 -9 10
-20 10 -11 14 -20 10 -20 -4 0 0 -9 10 -20 10 -11 14 -20 10 -20 -4 0 0 -9 10
-20 10 -11 14 -20 10 -20 -5 0 4 -13 20 -30 16 -16 25 -30 20 -30 -4 0 0 -9
10 -20 10 -11 14 -20 10 -20 -4 0 0 -9 10 -20 10 -11 14 -20 10 -20 -4 0 0 -9
10 -20 10 -11 14 -20 10 -20 -4 0 0 -9 10 -20 10 -11 14 -20 10 -20 -4 0 0 -9
10 -20 10 -11 14 -20 10 -20 -4 0 0 -9 10 -20 10 -11 14 -20 10 -20 -5 0 3
-12 16 -27 29 -32 32 -55 8 -58 -11 -2 -16 4 -15 19 1 11 -4 20 -10 19 -6 -1
-11 8 -10 20 0 12 -4 21 -10 20 -6 -1 -11 8 -10 20 0 12 -4 21 -10 20 -6 -1
-11 8 -10 20 0 12 -4 21 -10 20 -6 -1 -11 8 -10 20 0 12 -4 21 -10 20 -6 -1
-11 8 -10 20 1 13 -4 21 -11 20 -7 -2 -12 3 -10 10 1 6 -3 11 -9 10 -6 -1 -11
8 -10 20 0 12 -4 21 -10 20 -6 -1 -11 8 -10 20 0 12 -4 21 -10 20 -6 -1 -11 8
-10 20 0 12 -4 21 -10 20 -6 -1 -11 8 -10 20 0 12 -4 21 -10 20 -6 -1 -11 8
-10 20 0 12 -4 21 -10 20 -6 -1 -11 8 -10 20 0 12 -4 21 -10 20 -6 -1 -11 8
-10 20 1 13 -4 21 -12 19 -6 -1 -11 4 -10 10 2 7 -2 12 -8 11 -6 -1 -11 8 -10
20 0 12 -4 21 -10 20 -6 -1 -11 8 -10 20 0 12 -4 21 -10 20 -6 -1 -11 8 -10
20 0 12 -4 21 -10 20 -6 -1 -11 8 -10 20 0 12 -4 21 -10 20 -6 -1 -11 8 -10
20 0 12 -4 21 -10 20 -6 -1 -11 8 -10 20 0 12 -4 21 -10 20 -6 -1 -11 8 -10
20 1 13 -4 21 -11 20 -7 -2 -12 3 -10 10 1 6 -3 11 -9 10 -6 -1 -11 8 -10 20
0 12 -4 21 -10 20 -6 -1 -11 8 -10 20 0 12 -4 21 -10 20 -6 -1 -11 8 -10 20 0
12 -4 21 -10 20 -6 -1 -11 8 -10 20 0 12 -4 21 -10 20 -6 -1 -11 8 -10 20 0
12 -4 21 -10 20 -6 -1 -11 8 -10 20 1 13 -4 21 -11 20 -7 -2 -12 3 -10 10 1 6
-3 11 -10 10 -6 -1 -10 5 -8 15 4 21 2 19 20 19 8 0 13 -3 10 -5z"/>
<path d="M6625 6110 c10 -11 20 -20 23 -20 3 0 -3 9 -13 20 -10 11 -20 20 -23
20 -3 0 3 -9 13 -20z"/>
<path d="M6743 5894 c9 -11 15 -23 12 -26 -3 -3 5 -13 17 -24 23 -19 23 -19 5
2 -9 11 -15 23 -12 26 3 3 -5 13 -17 24 -23 19 -23 19 -5 -2z"/>
<path d="M6884 5633 c11 -13 15 -23 11 -23 -4 0 -1 -8 8 -18 10 -10 15 -21 12
-24 -3 -3 5 -13 17 -24 l23 -19 -19 23 c-11 12 -15 22 -11 22 4 0 1 8 -8 18
-10 10 -15 21 -12 24 3 3 -5 13 -17 24 l-23 19 19 -22z"/>
<path d="M7044 5333 c11 -13 15 -23 11 -23 -4 0 -1 -8 8 -18 10 -10 15 -21 12
-24 -3 -3 5 -13 17 -24 l23 -19 -19 23 c-11 12 -15 22 -11 22 4 0 1 8 -8 18
-10 10 -15 21 -12 24 3 3 -5 13 -17 24 l-23 19 19 -22z"/>
<path d="M7203 5034 c9 -11 14 -23 11 -26 -3 -3 -1 -8 4 -12 18 -11 8 25 -12
41 -21 18 -21 18 -3 -3z"/>
<path d="M7545 4697 l-300 -522 -7 -175 c-11 -286 -42 -508 -103 -744 -210
-815 -729 -1511 -1460 -1956 -101 -62 -344 -182 -460 -228 -460 -182 -975
-261 -1440 -222 -633 54 -1209 274 -1707 652 l-77 58 -546 0 -546 0 63 -77
c95 -118 367 -387 510 -505 474 -391 1009 -658 1618 -807 279 -68 504 -98 820
-107 896 -27 1794 257 2500 791 453 343 816 752 1082 1220 515 905 658 1969
401 2980 -19 77 -38 145 -42 152 -3 6 -141 -223 -306 -510z"/>
</g>
</svg>
